<?xml version="1.0" encoding="UTF-8" standalone="no"?>
<svg id="svg2"  xmlns="http://www.w3.org/2000/svg" height="300pt" width="300pt" version="1.1"  viewBox="0 0 1236 1038">
<g>
<path id="path4" d="m587.18 0h3.64c-0.6 2.11-3.06 2.11-3.64 0z"/>
<path id="path6" d="m579.54 1.29c5.4-2.6 3.31 3.44 0 0z"/>
<path id="path8" d="m573.57 2.22c4.36-2.55 1.93 3.71 0 0z"/>
<path id="path10" d="m583.19 10.16c20.36-7.15 46.77 9.97 62.02-8.24 0.13 13.87 17 10.98 26.18 16.76 9.51 14.04-20.86 21.2-11.53 33.17 32.21-19.06 74.21-28.1 109.05-10.75 26.66 9.17 40.15 36.8 64.29 48.71-13.25-19.24-32.04-33.7-50.44-47.6 31.83 14.78 46.79 49.92 78.33 64.68 5.33 3.72-7.92 9.41-2.31 14.31 9.09 9.32 2.34 26.89-10.8 26.55-7.03 1.29-13.33-11.19-18.8-3.93 30.43 29.73 38.97 76.87 28.83 117.19-8.5 32.01-23.16 62.19-40.73 90.17-8.88 12.83-31.75 8.09-34.19-7.52-7.69-45.16-16.52-95.29-51.86-127.89-13.29-13.62-32.45-16.59-50.16-19.81 19.07-0.42 38.87 4.47 53.19 17.78 30.08 26.5 42.29 66.94 49.75 104.95 5.55-2.83 6.35-12.38 4.19-17.86-8.99-37.1-23.63-76.08-55.61-99.41-19.09-14.49-44.11-15.72-67.07-17.06 9.46 21.98 20.55 43.35 31.61 64.54 27.24 59.27 48.86 120.76 66.58 183.49 7.75 1.5 15.72 2.16 23.26 4.72-4.88 4.8-19.8-1.83-19.83 6.94 12.9-0.43 25.72-3.31 38.36 0.84 10.59-8.2 16.21-27.29 31.54-26.42 11.16 3.97 4.98 16.55 4.06 24.57 54.56 3.54 109.27 9.38 162.2 23.69 64.8-4.15 129.6-9.05 194.4-12.65 7-1.85 11.8 4.65 11.5 10.88 9.4 147.2 18.5 294.46 25.9 441.77l-0.9 0.18c-10.6-148.51-21.3-297.04-32.6-445.49-58.4 2.92-116.8 9-175.2 12.37 2.3 2.91 8.9 4.13 13.1 5.74 51.7-3.09 103.3-8.46 155-10.53 9 107.12 16.9 216.71 21.7 322.92-7.4-106.92-16.2-213.77-23.2-320.73-49.2 4.12-98.7 7.05-147.9 11.31 22.5 9.77 44.4 23.35 58.7 43.67 8.5 12.65 12.6 31.62 6.2 44.8 5.3-22.3-6.9-44.54-25-56.98-28.4-20.06-62.9-35.08-98.11-27.55 36.31 11.71 78.81 21.85 102.01 54.72-15.5-17.43-37.7-25.83-59.3-32.75-49.79-14.57-101.81-18.8-153.38-21.11-21.37 25.94-41.31 59.72-76.44 69.51-46.08 14.51-100.46 17-142.36-10.21-13.52-12.13-21.08-29.25-32.05-43.51-111.19 4.33-224.65 10.77-329.86 50.43-36.49 9.71-71.83 24.41-104.39 43.6-12.51 8.62-31.02 20.08-26.15 37.94-6.22-6.03-1.3-17.59 3.84-23.31 25.14-27.74 62.99-38.37 96.04-51.97-32.56 0.51-62.11 18.34-88.86 35.21-16.35 10.34-30.7 33.73-14.99 51.08 26.19 27.58 65.55 36.63 101.04 45.87 91.42 21.4 186.09 24.83 279.58 21.74 141-6.05 282.52-23.63 417.76-65.29 34.28-11.44 68.92-23.17 100.02-41.99 18.9-11.42 37.8-28.95 38.7-52.14-0.3 41-43.7 60.6-75.1 76.72-116.78 51.6-244.07 73.77-369.92 90.11-141.75 16.88-288.3 22-426.95-17.2-34.33-11.47-75.73-25.15-90.32-61.7-10.64-33.91 19.07-61.08 45.9-75.6-19.99-5.81-37.2 12.72-47.61 28.5-15.75 21.97-11.85 53.93 6.77 73.04 25.66 26.1 61.86 37.23 96.2 46.81 125.36 31.72 256.36 29.45 384.3 18.42 73.35-6.03 146.41-15.94 218.55-30.51-92.3 24.02-189.46 34.57-285.08 41.02-114.23 5.28-230.83 3.41-341.87-26.83-37.39-11.72-79.62-28.68-95.06-67.9-11.51-29.14 3.02-61.32 25.17-81.02-25.96 2.66-52.08 3.6-78.07 5.97 9.59 135.18 18.09 270.46 27.08 405.69 111.95-6.15 226.37-16.1 336.76-20-113.51 7.56-226.94 17.26-340.47 24.22-11.1-138.82-20.96-277.89-30.86-416.81 31.1-2.57 62.27-4.58 93.36-7.02 3.35-1.52 9.15-2.22 9.97-6.39-36.43 3.12-72.93 5.88-109.44 8.07 11 142.63 21.3 285.33 32.35 427.95 371.46-28.25 742.91-59.85 1115.3-71.81 6 0.63 15.6-1.7 19.8 0.86-380.68 27.54-761.29 55.94-1141.9 84.15-5.71 3-5.41-3.07-6.02-6.18-10.45-148.85-22.99-297.6-33.04-446.46 46.62-4.77 93.52-7.35 140.25-11.2 13.03 1.06 23.48-7.68 35.02-12.11-59.39 4.18-118.77 8.51-178.16 12.59-5.46-1.22-10.18 4.3-8.1 9.52 11.23 153.73 22.48 307.47 34.47 461.14 0.35 7 10.03 2.5 14.22 3.5 376.12-29.64 752.41-57.36 1129.2-77.92l0.1 0.94c-374.78 34.58-749.58 68.78-1124.5 101.18h-21.77c-11.8-3.2-21.29-13.4-21.85-25.9-13.27-154.37-24.08-309.06-36.78-463.47v-5.4c2.18-15.5 14.44-28.95 30.5-29.78 79.85-6.3 159.97-10.29 239.74-17.09 124.34-42.05 255.86-57.66 386.46-63.43-12.78-73.26-34.14-145.51-63.81-213.78-53.23 20.43-86.02 75.36-92.8 130.16-4.43 8.91-1.21 21.2-10.06 27.79-18.65 15.19-37.95-10.05-40.33-26.72-22.67-53.92-36.36-124.06 3.18-173.48-23.01 3.89-45.45 10.47-68.29 15.01-19.08 4.31-34.49-21.06-21.54-35.82 26.2-33.97 57.7-66.23 97.74-83.3 24.73-11.12 52.64-10.36 78.48-3.94-6.11-12.17-18.44-20.41-22.96-33.41-2.78-28.97 39.12-27.99 55.14-31.94-18.05 7.58-58.79 3.93-52.68 34.26 10.13 11.46 16.66 31.64 33.03 34.2-4.44-15.18-19.39-24.35-25.69-38.45-1.17-15.2 19-13.44 28.77-17.32 6.25-6.44 19.18-1.43 28.31-6.03m14.41 19.37c-7.25 1.08-14.76 1.18-21.81 3.04 5.26 17.6 25.64-0.86 37.91 6.35 16.22-12.85-7.92-9.47-16.1-9.39m33.82 1.59c-1.83 2.17-11.22 11-1.55 9.02 9.21 1.69 14.6-12.51 1.55-9.02m-68.27 4.16c-14.07-3.12-5.32 14.15 2.9 8.84 8.16 1.07 0.11-8.49-2.9-8.84m33.46 13.25c-3.23 0.33-6.44 0.77-9.61 1.38 8.51 15.58 16 31.8 21.76 48.61 4.31 19.24-14.43 40.2-34.26 34.94 5.87 13.95 2.33 33.65-13.58 39.49-24.59 8.48-50.75 15.09-71.75 31.21-16.95 16.81-17.31 43.06-14.46 65.02 23.51-51.22 70.19-91.88 125.19-105.39 10.93-3.04 22.12 2.44 28.39 11.35 3.03-10.74 10.9-20.82 23.01-21 26.36 0.96 53.87 0.47 78.68 10.89 41.09 17.01 65.72 58.62 80.04 97.74 13.82-31.25 7.61-77.98-25.1-96.69-36.33-20.67-79.46-15.26-119.27-14.54-23.36-3.08-29.66-36.72-10.38-49.36-12.38 10.56-32.79 9.87-42.98-3.46-11.53-14.48-6.46-34.29-3.47-50.88-4.08-0.02-8.17 0.36-12.21 0.69m22.05 0.55c-4.86 11.88-4.29 25.47-2.86 37.92 5.27 15.92 26.71 17.44 36.66 5.41 30.56-28.68 74.3-38.17 114.59-28.35-38.33-24.96-88.18-5.06-119.99 21.94-5.77 7.51-19.38 8.57-23.2-1.18-2.27-11.26-0.73-23.22 2.95-34.09 0.72-4.13-6.84-0.06-8.15-1.65m-43.38 3.2c-2.93 0.73-10.56 0.16-7.26 4.73 6.09 8.01 7.63 19.45 14.92 26.14 5.89 0.88-0.11 6.51 2.09 9.75 2.36 6.17 7.17 13.92 0.1 19.22-7.92 6.88-16.42-5.9-24.41-1.63-38.23-25.67-97.24-17.12-129.47 17.7 11.72-2.47 24.46-2.5 33.75-11.23 33.14-21.32 73.26-7.6 106.65 5.49 15.38 7.69 33.52-10.92 25.3-26.29-5.93-15.02-12.54-31.57-21.67-43.88m76.42 1.01c-2.78 1.35-4.17 4.34-5.73 6.85 2.34-0.79 16.18-7.99 5.73-6.85m-161.15 15.19c-44.2 6.43-80.39 37.84-108.47 70.57 4.23-1.03 9.35-1.01 12.26-4.77 27.98-29.36 62.79-57.4 104.93-60.04 15.74 0.22 31.39 2.76 46.57 6.91-8.52-19.2-38.48-10.93-55.29-12.67m239.03 1.03c-28.55 5-53.37 22.4-74.23 41.75-11.04 11.17-3.43 32.43 12.19 34.21 43.86-1.81 95.14-6.49 131.53 23.46 26.94 25.11 28.92 67.2 15.47 99.68-3.18 4.67 0.22 9.63 1.55 14.21 20.72-38.71 19.69-97.41-20.15-124.76-35.9-23.66-81.83-22.49-122.93-19.15-11.96 2.13-21.36-13.85-12.84-22.72 25.46-23.6 58.95-45.7 95.36-40.1-4.99-4.95-17.69-7.66-25.95-6.58m35.45 1.32c9.43 7.8 20.14 13.74 31.96 17.24-7.2-10.57-19.47-16.16-31.96-17.24m-219.88 3.03c1.2 7.26 7.07 10.5 13.73 11.24-1.69-6.87-5.89-11.9-13.73-11.24m190.48 22.64c-8.65 1.08-16.78 4.3-24.68 7.78 8.03 3.02 18.67-0.67 27.37-2.18 24.06-0.83 46.74 9.08 67.58 20.04-14.61-21.46-46.23-25.83-70.27-25.64m98.29 2.6c5.18 7.94 10.07 17.14 19.89 20.05-3.89-8.89-10.61-16.63-19.89-20.05m-93.53 6.81c10.4 2.91 26.46 4.03 38.53 8.18-10.92-6.02-25.61-8.32-38.53-8.18m-38.41 4.43c-3.79 1.12-7.08 3.63-10.13 6.08 7.59 5.97 33.72-11.64 10.13-6.08m149.1-0.58c3.92 10.88 11.45 3.49 0 0m-129.28 1.58c-3.7 1.13-6.98 3.29-10.29 5.21 45.24 0.54 97.46 11.49 122.6 53.33 25.57 42.41 14.5 95.35-7.13 137.06-4.49 5.32-4.68 13.43-1.14 18.92 13.01-26.84 26.18-54.46 29.67-84.45 2.5-30.65-4.48-63.4-24.46-87.45-26.63-31.08-69.59-43.11-109.25-42.62m-224.03 5.12c-25.25 3.72 16.17 2.65 21.2 0.67-7.02-0.92-14.15-1.67-21.2-0.67m317.33 4.42c3.95 7.75 10.62 14.14 18.89 17.03-1.33-9.85-11.37-13.16-18.89-17.03m40.06 0.34c-7.19 3.66 2.49 9.46-0.97 14.74-2.76 4.9-9.63 3.07-13.26 0.01-10.46 4.86 6.62 11.96 11.68 8.21 10.35-2.72 9.92-18.11 2.55-22.96m-347.57 7.38c-23.34 2.41-52.22-1.31-67.44 20.67 34.65-9.1 71.36-4.02 104.98-16.92-3.6 8.63 17.89 12.72 5.49 20.2-8.35-0.07 3.38 13.84-7.55 10.47-12.27-1.67-24.85-1.54-36.08 4.19 7.62 3.36 22.04-1.79 28.93 1.78-16.92 0.32-35.71-2.24-49.86 9.09-46.14 26.09-40.53 90.3-27.07 132.58 6.82-8.88-4.21-22.33-1.27-31.49 1.89 6.78 1.75 14.97 5.14 20.97 1.36-5.12 3.69-9.98 4.78-15.16-5.04-27.81-7.16-60.43 11.55-83.8 21.2-20.32 50.62-28.08 77.68-37.22 15.63-5.64 13.4-30.9-2.83-34.16-15.39-1.12-31-2.73-46.45-1.2m318.25 8.48c2.82 8.01 8.25 1.61 0 0m-392.36 1.24c-13.04 1.19-25.61 5.84-31.25 18.86 14.18-0.57 25.06-8.52 33.66-19.3-0.6 0.11-1.81 0.33-2.41 0.44m-57.32 6.63c-8.14 9.26-19.44 20.78-12.2 34.04 7.95 14.01 25.54 10.36 38.06 5.89-1.63-9.55-13.77-1.41-19.13-1.96-12.1 2.11-20.06-13.78-11.61-22.56 2.11-4.05 11.79-10.92 4.88-15.41m271.46 15.44c-15.82 3.17-16.26 23.55-6.41 33.44 7.83 8.21 8.1 30.38 22.33 25.97-4.48-14.17-14.78-27.04-20.56-41.06-1.77-7.24 5.78-12.32 12.23-10.8 27.91 0.47 58.4 0.38 82.77 16.08 34.85 22.06 53.47 60.84 64.84 99.09 1.24-3.84 4.36-7.58 3.78-11.78-10.92-35.78-30.16-70.78-61.8-92.13-28.29-19.28-64.24-20.23-97.18-18.81m-188.91 7.08c-15.6 5.58-40.34 0.41-49.52 15.51 15.7-3.03 31.3-6.7 47.08-9.34 3.22-1.76 12.94-9.73 2.44-6.17m145.55 3.89c-58.14 13.32-107.05 58.81-126.99 114.54 1.02 3.82 1.88 17.24 4.66 8.9 18.41-55.67 64.98-102.29 122.46-116.3 4.17-0.16 9.21 0.88 11.12 5.07 7.61 14.05 13.54 28.96 20.54 43.32 9.95-0.32 2.64-9.6 0.83-14.76-8.95-14.71-10.74-40.53-32.62-40.77m0.97 14.06c-59.18 13.44-106.14 63.01-122.84 120.34 0.76 2.34 2.68 10.94 4.09 2.92 17.09-55.45 61.35-104.76 119.19-117.46 7.35 15.58 14.2 31.44 20.39 47.54 2.03-1.01 2.69-3.84 3.69-5.82-5.36-14.68-12.22-28.81-18.48-43.13-0.92-2.4-3.21-5.11-6.04-4.39m60.81 38.89c-11.84-3.38-6.84 12.86 0.96 8.86 5.55-0.08 1.33-7.95-0.96-8.86m-24.57 5.95c-5.85 0.55-1.72 7.61 0.51 9.56 7.21 0.72 5.35-11.28-0.51-9.56m12.75 1.34c-0.95 6.47 5.38 3.02 0 0m-22.33 8.25c-1.94 9.56 0.26 24.95 11.09 28.07-3.64-9.14-5.62-20.04-11.09-28.07m47.52 13.32c-2.34 6.12 10.72 1.01 0 0m-12.21 3.11c-5.52 0.07-0.65 6.5 0.04 9.52 7.56 1.12 3.22-7.77-0.04-9.52m6.78 0.57c0.84 5.54 5.71 7.77 9.96 4.36-3.23-1.65-6.61-3.01-9.96-4.36m-21.53 3.6c-4.64 0.04-0.61 5.76 0.05 8.3 9.54 4.36 6.49-11.38-0.05-8.3m34.06 5.79c-13.08-1.5-2.83 10.56-0.35 16.65 14.28 2.6 6.01-14.31 0.35-16.65m-13.38 3.04c-8.17 0.59 1.41 21.58 7.33 14.01-1.85-4.82-3.83-10.94-7.33-14.01m-33.88 3.54c4.29 14.08 9.55 28.6 13.72 42.13 0.73-10.87 1.25-37.64-13.72-42.13m18.14 0.46c-5.36 3.13 1.98 11.42 2.84 16.45 9.98 0.22 4.53-18-2.84-16.45m152.22 9.14c-4.45 5.91-5.25 13.21-1.92 19.92 5-5.24 5.15-16.36 1.92-19.92m-113.54 2.79c-9.14-1.13-8.39 5.34-4.57 10.56 6.69 3.08 10.28-8.76 4.57-10.56m-14.95 3.03c-8.21-2.81-4.46 12.14 0.56 10.38 7.78 1.8 3.36-10.92-0.56-10.38m-14.83 4.02c-8.98 3.14 0.69 13.35 0.94 19.47 1.18-5.22 6.15-15.81-0.94-19.47m-195.06 8.96c-5.15 9.08-4.29 18.4 0.9 26.96 4.37-8.6 4.46-18.73-0.9-26.96m186.57 11.72c0.59 12.26 5.38 7.96 0 0m48.48 1.24c-11.69 0.26 3.33 6.12 6.57 7.96-1.29-3.21-1.73-9.46-6.57-7.96m-12.18 2.21c-13.32-4.6-9.39 16.29 1.28 10.1 6.33 1.05 0.46-8.43-1.28-10.1m2.48-0.21c1.4 4.62 5.24-1.44 0 0m-26.84 2.06c0.83 5.63 1.91 13.54 9.83 11.14-0.53-6.48-2.83-11.36-9.83-11.14m-203.7 1.09c-3.94 7.42 0.41 14.5 3.14 21.37 5.14-5.69-0.11-16.2-3.14-21.37m325.12-0.52c-1.83 2.84-3.59 5.91-3.98 9.31 8.06 4.46 6.58-5.56 3.98-9.31m-90.1 0.99c0.39 3.86 3.58 7.75 7.96 4.64-2.32-2.04-5.03-3.66-7.96-4.64m-224 1.37c-1.5 6.35-3.62 14.51 1 20.05 1.9-6.01 5.32-17.02-1-20.05m341.22 2.16c-1.15 3.31-8.47 10.49-1.89 10.3 6.94 3.91 3.64-8.68 1.89-10.3m-162.42 0.82c9.69 34.5 18.37 69.29 25.59 104.4-0.49 3.39 7.42 4.59 6.31 0.68-6.44-31.63-14.17-63.02-22.78-94.14-1.37-4.73-5.93-7.53-9.12-10.94m54.49-0.31c2.49 5.71 7.47 0.51 0 0m0.94 4.63c-2.51 0.31-7.54-0.87-5.69 2.93 3.58 7.41 4.27 22.73 16.3 14.41-2.44-5.87-3.05-18.01-10.61-17.34m74.72 0.57c1.81 8.45 1.04 19.97 11.28 23.12 11.14 4.38 18.98-7.23 22.39-16.16-9.72-4.96-10.76 12.79-19.77 9.3-8.21-2.53-2.58-17.22-13.9-16.26m-87.74 1.36c-15.54-2.34-4.93 12.21-3.86 20.36 4.51 0.05 9.01-0.71 13.4-1.76-3.26-5.74-3.68-16.8-9.54-18.6m-20.89 2.89c-5.27-0.48-1.59 4.54-1.05 7.4 2.36 6.06 2.9 23.8 10.64 13.12-3.51-6.2-1.19-20.69-9.59-20.52m-204.39 6.04c-1.87 5.03-0.5 10.22 2.16 14.65 3.52-2.82 2.21-13.86-2.16-14.65m247.37 10.88c-9.77-1.8-5.52 8.56-2.21 11.69 3.87-0.07 11.25-13.64 2.21-11.69m-14.97 3.32c-3.76 1.11-12.76-0.51-8.46 6.62-1.14 10.64 10.54 3.15 16 2.77-1.5-3.75-1.48-11.86-7.54-9.39m20.67 2.32c-5.98 6.38 4.99 5.56 0 0m-38.83 2.27c-7.67 4.95-1.52 14.09-0.35 20.94 1.65 5.94 1.43 15.38 9.9 14.01-3.49-11.14-4.47-25.32-9.55-34.95m39.36 19.29c-8.71 1.11 8.38 6.98 9.63 9.44 0.87-2.08-2.77-14.23-9.63-9.44m-6.27 0.93c-0.74 5.6 5.49-0.18 0 0m-6.79 1.17c-9.6-1.55-13.36 4.16-8.42 12.45 5.51-0.85 11.03-1.69 16.61-2.04-0.49-4.44-1.31-13.85-8.19-10.41m9.63 2.31c1.29 3.01 0.97 9.47 6.44 6.67 7.65-0.4-3.79-5.31-6.44-6.67m11.01 5.83c7.58 5.52-6.46 2.22-7.13 6.22 4.62 8.91 3.42 29.28 18.7 22.04-2.35-9.31-4.31-22.71-11.57-28.26m-14.77 5.72c-4.37 0.74-8.73 1.48-13.15 1.69 0.81 8.36 3.71 16.43 5.04 24.74 6.19-1.27 15.83 0.39 19.67-3.68-4.85-5.83-2.38-22.88-11.56-22.75m-28.08 2.58c2.15 9.99 4.53 19.94 6.56 29.97l6.16-4.12c-5.2-8.2 0.55-27.53-12.72-25.85m49.25 23.51c-7.88-1-2.78 8-1.52 12.47 6.14-1.99 14.54-17.39 1.52-12.47m-17 2.07c-5.65 0.72-15.5-0.71-10.26 8.05 0.88 10.75 15.31 0.88 22.5 2.36-1.06-6.6-3.14-14.91-12.24-10.41m24.97 2.93c-1.95 1.95-6.9 8.6-1 6.24 5.02 1.18 2.79-6.42 1-6.24m-45.3 0.3c-7.69 4.75-3.95 17.68 4.84 18.15-0.65-3.86-1.44-7.68-2.12-11.53-6.42 2.73 2.63-4.77-2.72-6.62m129.07 5.25c-11.99 8.83 3.54 9.7 0 0m-144.92 1.99c-10.35 7.74 6 9.63 0 0m137.9 6.18c-10.65 9.38 16.13 2 0 0m-72.77 5.08c-4.04 0.67-12.99 8.8-4.41 7.48 6.42 2.04 12.86-7.54 4.41-7.48m-15 0.99c-7.08-0.56-31.04 3.23-14.47 8.94-18.12 7.67 26.19 3.17 3.2-1.1 5.54 2.52 11.69-4.82 11.27-7.84m-47.43 1.96c-7-3.44-6.06 9.46-0.72 6.12 3.83 0.67 3.02-5.85 0.72-6.12m12.68 5.18c0.48 4.23 3.06 8.64 8 7.58-0.28-3.68-4.08-8.13-8-7.58m39.85 0.73c-5.79 10.73 18.02-4 0 0m44.84 3.5c-9.37 0.74-18.49 3.21-27.56 5.5 7.72 2.66 19.65 0.49 28.19 0.4 2.46-4.81 3.78-2.86 2.08 1.48 13.7-1.18 9.87-11.9-2.71-7.38m13.97 0.55c-5.91 12.35 9.74 0.65 0 0m20.12 0.15c-6.7 10.89 21.18 15.38 22.24 3.45-10.44 3.63-14.58-4.92-22.24-3.45m-78.17 2.01c-10.62 2.36-0.07 16.33 1.93 22.37 7.56 7.18-4.99 29.01 10.24 25.23 1.76-12.68 8.19-24.23 9.27-36.91-9.93-2.4-4.59 10.71-7.75 16.11-5.07-5.73-9.25-12.42-11.93-19.58-0.86-2.17 2.96-9-1.76-7.22m-21.93 1.66c0.95 15.45 5.25 30.56 7.63 45.83 14.58 7.16 9.62-14.92 7.92-23.78-6.04-7.89-1.74-25.63-15.55-22.05m-15.12 0.74c-0.17 11.31 8.01 3.13 0 0m52.23 2.25c-1.18 10.93 14.08-4.33 0 0m7.58 0.05c-1.32 8.52 17.5 4.91 20.14 0.98-6.22-2.66-13.59-0.42-20.14-0.98m105.92-0.11c0.36 2.64 2.07 6.12 5.12 6.15 33.88 2.99 67.64 7.81 100.8 15.35 11.66-1.19 23.62-1.13 35.12-3.21-20.35-10.22-42.5 2.03-63.19-5.15-25.59-6.26-51.7-10.15-77.85-13.14m-72.79 1.3c-0.22 5.44 5.59-2.08 0 0m19.74 0.15c-3.54 11.42 16.12 3.58 0 0m-287.47 2.92c3.31 3.44 5.4-2.6 0 0m-9.03 1.06c5.86 3.16 7.44-2.6 0 0m-7.9 1.19c-81.57 9.87-162.63 26.04-240.34 53.04-18.21 0.61-38.21 4.28-53.13 13.57 62.7-1.48 120.34-29.96 181.66-40.42-17.04-0.02-40.45 8.85-57.65 9.5 56.27-14.99 113.38-27.23 171.12-34.92 9.94-0.03 1.4-2.86-1.66-0.77m284.95 0.14c-7.17 7.21-9.51 18.08-9.74 27.93 4.18 1.61 5.25-4.09 4.86-6.98 0.37-7.25 6.14-13.72 4.88-20.95m19.02 0.9c-10.1 5.34-18.74 33.86 0.24 30.41-5.57 10.64-16.26 16.41-26.89 20.89-9.5 10.94-25.21 13.73-38.04 7.37-15.12 3.93-32.41-3.7-45 7.77-7.66 1.82-25.31-6-18.16-14.9-10.06-0.1-14.55-18.04-23.01-8.42-2.73-4.39-0.44-18.39-10.52-11.8 10.2 30.14 45.16 39.42 73.8 40.09 29.69-1.89 62.35-2.96 86.75-22.23 9.81-10.4 17.99-22.34 28.44-32.16-8.21-2.21-17.67-0.07-26.23 0.43 0.94-5.93 8.6-16.39-1.38-17.45m-131.01 2.64c1.93 3.71 4.36-2.56 0 0m26.65 0.84c-1.89 1.7-4.65 5.18-0.88 6.34-3.41 4.88-1.51 27.89 7.31 23.89-2.38-9.72-2.21-22.16-6.43-30.23m-15.84 18.33c-11.19 4.05 8.15 9.85 0 0m-11.76 8.01c-2.02 0.69-6.94 3.45-2.7 4.72 3.64 3.89 8.41-8.33 2.7-4.72m3.63 1.56c-7.36 7.97 10.05 8.6 0 0m101.99 0.33c-2.17 5.12 4.97-0.3 0 0m-4.77 1.93c-3.31 1.64-5.21 5.04-7.4 7.85 4.96-0.3 17.61-6.27 7.4-7.85m-89.13 2.01c-12.67 6.99 12.87 5.58 0 0m17 4.92c-4.8 12.48 14.16-0.29 0 0m37.13 0.31c-6.68 3.54 6.84 7.75 10.57 4.03-3.08-2.26-6.16-6.13-10.57-4.03m-22.95 0.65c-7.28 8.24 8.65 6.03 13.26 6.25 0.91-7.75-7.66-7.69-13.26-6.25m-36.46 11.89c-1.32 9.44 10.16 8.06 15.95 4.82-3.97-2.88-10.76-3.35-15.95-4.82m-486.43 26.56c-9.72 1.16-24.01-0.21-30.35 7.65 13.15-0.69 26.77-0.51 38.43-7.55-0.32-2.55-7.02 1.38-8.08-0.1z"/>
<path id="path12" d="m768.93 34.96c4.43 1.95 9.88 3.27 13.04 7.07-4.56-1.79-9.81-3.19-13.04-7.07z"/>
<path id="path14" d="m455 262.03c3.47 6.29-1.66 10.58 0 0z"/>
<path id="path16" d="m456.32 272.51c3.27 4.64-2.59 6.44 0 0z"/>
<path id="path18" d="m1094.5 592.48c-20.3 26.95-58.3 43.57-90.5 57.47-69.64 28.03-143.01 45.82-216.86 58.16 80.75-17.48 164.4-36.62 240.96-70.98 24.5-10.88 48.2-24.77 66.4-44.65z"/>
<path id="path20" d="m250.15 682.87c103.36 19.6 210.32 18.34 313.96 20-104.32 8.66-213.03 5.74-313.96-20z"/>
<path id="path22" d="m781.54 708.29c5.4-2.6 3.31 3.44 0 0z"/>
<path id="path24" d="m1217.1 793.02c1.3 1.39 2.5 11.29-0.1 12.99-0.1-4.36-0.3-8.68 0.1-12.99z"/>
<path id="path26" d="m1218 807.02c3.7 12.31-1.8 15.67 0 0z"/>
<path id="path28" d="m1219 822.01c3.6 10.48-1.8 15.35 0 0z"/>
<path id="path30" d="m1220.1 837.02c3.2 9.61-1.6 10.35 0 0z"/>
<path id="path32" d="m1236 921.5c-1.1-3.69-1.1-7.35 0-10.99v10.99z"/>
<path id="path34" d="m1221.4 912.55c3 5.28-3.4 6.77 0 0z"/>
<path id="path36" d="m447 956.94c13.69-2 5.6 3.87 0 0z"/>
<path id="path38" d="m430.99 957.99c16.52-2.26 9.03 3.91 0 0z"/>
</g>
</svg>
