<?xml version="1.0" encoding="UTF-8" standalone="no"?>
<svg id="svg2" xmlns="http://www.w3.org/2000/svg" version="1.1" viewBox="0 0 1225 1023">
<g>
<path id="path4" d="m813.09 0h5.33c2.68 1.51 5.99 3.41 6.15 6.88 4.76 55.06 7.96 110.29 12.9 165.32 63.22 36.04 127.31 70.66 190.53 106.77 7.6 2.83 6.9 12.94 1.9 17.91-21.4 28.33-41.85 57.45-64.26 84.93-6.6 5.83-12.81-2.55-19-4.58 2.54 25.76 3.52 51.68 5.85 77.44 78.11-3.14 156.01-11.13 234.11-14.7 5.1-1.15 11 2.41 10.8 7.9 9.9 151.28 18.7 302.65 26.7 454.03-12.5-149.86-20.9-303.8-34.8-454.64-81.7 4.44-163.3 12.75-245.04 17.68-4.06-36.4-5.1-73.2-9.56-109.57 9.42 4.32 16.35 12.38 25.24 17.49 20.68-28.14 41.96-56.03 61.86-84.69-24.77-13.2-49.04-27.31-74.05-39.97 17.52 15.61 45.91 21.39 55.85 44.04-14.58 21.26-30.67 41.62-45.79 62.55-10.36-8.71-28.57-20.95-35.97-1.98 0.93-11.83 16.99-15.64 24.79-7.4 3.34 0.55 9.15 10.76 12.17 5.52-15.81-7.19-27.44-20.97-42.61-29.2 8.17 104.59 16.18 209.19 24.13 313.8 1.28 5.2-1.09 12.42-7.25 12.76-16.67 1.26-33.32 2.93-50.01 3.8 15.85-2.88 34.47-2.65 51.32-5.3 4.81-1.97 4.6-8.34 4.49-12.61-9.55-105.13-17.27-210.42-24.31-315.75 15.91 8.37 28.46 25.55 45.82 30.39 11.64-19.49 28.93-36.09 38.56-56.45-57.84-31.61-115.73-63.19-173.65-94.66-7.7-3.88-15.84-9.93-15.68-19.49-4.05-47.87-7.84-95.78-12.16-143.62 0.85-5.8-11.85-4.87-4.53-1.28 4.65 51.61 7.06 103.53 11.21 155.2 51.14 31.43 104.22 60.16 154.83 92.49-52.12-25.93-103.82-52.89-155.89-79.02-5.26-2.52-10.8-6.42-11.49-12.67-5.76-45.34-10.08-90.89-15.96-136.22-12.24 0.45-24.95 2-36.61 5.42 1.29 26.85 5.55 53.54 6.99 80.4 1.07 18.55-20.71 33.09-37.55 24.75-44.74-26.01-88.72-53.53-133.42-79.56-113.92 91.41-230.94 178.94-348.95 265.01-5.3 1.28-4.03 6.08-1.34 8.88 8.87-8.53 17.65-17.22 26.77-25.46 13.69-11.25 37.01-0.2 36.58 17.48 5.39 106.62 8.93 213.4 15.32 319.95 21.94 1.07 43.18-5.42 64.73-8.3-19.71-1.25-40.02 2.1-60.01 1.84-0.28-25.84-2.79-51.59-3.19-77.42 3.04 23.24 3.94 49.82 6.24 74.41 28.22-1.67 56.53-3.03 84.76-4.36-0.84-24.15-3.51-50.19-2.08-73.06 0.67 24.3 3.18 48.49 4.44 72.76 2.42-1.13 11.71 3.31 7.48-4.64-3.82-81.12-8.55-162.21-13.49-243.27-0.39-3.79-0.48-10.79 4.79-11.22 51.19-3.93 102.49-6.67 153.68-10.69 4.71-0.63 6.63 5.32 6.56 8.97 5.54 80.28 11.77 160.53 17.87 240.78-2.12 12.74 14.62 10.63 19.68 19.91 108.68-8.24 217.91-16.14 326.21-26.1-7.44-107.95-15.32-215.96-20.01-324.07 0.1-4.51 5.86-7.9 9.69-5.3 15.76 10.69 30.08 23.39 45.29 34.83 10.54-13.99 18.47-29.93 29.06-43.88-8.35 16.36-18.96 31.79-28.19 47.77-15.74-11.62-31.39-23.43-47.17-34.95-6.13-1.02-2.86 7.43-3.65 10.81 7.95 108.35 17.1 216.69 25.7 324.96-110.54 9.68-220.9 21.47-331.42 31.31 0.03 2.69-4.77 12.62 3.37 8.77 110.1-9.67 220.37-17.66 330.46-27.28 9.43-0.98 10.68-10.93 11.24-18.35 2.95 8.94-3.15 20.5-13.28 20.08-111.39 11.11-222.92 20.95-334.41 31.04-5.18 5.65-9.37 12.88-17.43 15.04-69.35 13.82-140.41 24.5-206.14 51.8 32.7 9.14 71.85 11.06 104.47 15.92-36.07-1.93-72.17-6.26-107.52-13.79-2.17-0.06-3.93 1.42-5.42 2.82 49.8 11.79 101.24 14.07 152.11 18.08 115.83 6.37 231.74 12.95 347.06 25.92 59.93 7.94 120.39 18.87 176.31 42.75 32.6 14.23 66.4 36.31 77.5 72.03 29.8 0.14 59.5-2.3 89.3-1.9-27.3 3.1-57.7 3.82-86 7.14-4.6 0.07-0.2 6.61-2.6 8.93-2.2-1.88-5.5-7.11-4.3 0.45-3.5-2.35-6.9-4.77-10-7.58 9.4-2.11-7.6-7.96 6.6-7.01-6.5-22.16-25.9-38.16-44.9-49.72-41-23.2-87.38-34.1-133.23-42.77-167.75-27.41-338.52-25.75-507.36-42.63-28.6-4.28-58.79-5.94-85.09-18.97-6.17-2.6-1.28-10.71 2.02-13.61 17.77-15.14 40.7-21.5 61.78-30.38-22.54 4.29-48.06 3.35-65.91 20.13-8.43 5.97-16.68 20.14-8.09 29.16 15.5 12.29 36.04 14.18 54.74 18.23 66.81 10.64 134.56 12.82 201.98 17 101.24 6.48 202.72 12.01 303.31 25.68 54.6 9.18 110.35 19.48 160.05 44.95 22.8 12.48 47.6 31.26 49.2 59.44 0.4 3.52 4.6 6.03 8 4.48 28.6-1.68 57.2-3.32 85.8-5.01-28.2 4.16-58.8 5.18-88 8.92-7.4 0.2-10.6-7.85-10.6-14.18-6.5-26.44-32.5-41-55.5-51.54-50.78-21.2-105.67-29.51-159.96-36.03-143.17-14.22-287.2-15.2-430.68-24.3-41.45-4.56-84.95-5.64-123.26-23.74-20.95-9.23-27.05-36.72-15.11-55.19-33.8 9.53-70.31 16.47-98.75 38.32 5.8 9.77 17.96 14.17 27.89 18.8 38.03 15.45 79.03 21.4 119.52 26.49 77.74 10.4 155.5 20.69 233.13 31.86 44.88 8.88 91.18 19.19 129.48 45.52 19.18 13.28 34.48 34.02 36.25 57.84 2.43 14.61-9.25 30.12-24.34 30.41-222.17 13.34-444.6 23.82-666.68 37.92h-15.78c-6.79-2.1-13.07-8-13.28-15.4-9.34-158.17-18.36-316.4-27.88-474.57-1.15-7.39 6.15-11.99 12.64-12.02 73.11-4.27 146.19-9.16 219.31-13.38 4.29 0.19 2.33-5.18 2.66-7.59-1.81-25.93-3.04-51.92-4.99-77.83-6.25 3.07-10.76 14.89-19.53 9.49-26.85-25.86-53.55-52.43-78.25-80.22 0.77-11.6 16.99-14.24 22.04-24.15 76.08-62.47 155.5-121.18 231.93-183.1-85.17 64.67-169.68 130.31-254.56 195.39-8.28 5.5-5.88 17.16 1.09 22.65 25.93 24.61 49.42 52.24 77 74.81 8.38 3.25-2.82 1.84-5.42-1.5-25.32-24.32-49.32-50.05-75.12-73.84-7.99-6.76-6.56-20.12 2.19-25.43 135.27-106.87 270.96-213.22 407.79-318.07 8.43-7 18.98-16.27 30.56-10.2 31.77 18.74 61.46 41.07 93.22 59.84-1.37-12.98-2.36-26.29-1.33-39.18 2.09 15.06 3.89 30.27 4.03 45.48-32.96-19.83-64.85-41.43-97.83-61.2-6.77-3.97-13.82 0.7-19.21 4.72-21.21 17.52-44.09 33.13-64.62 51.38 20.39-13.98 39.29-30.06 58.94-45.06 9.04-8.16 23.32-10.33 33.89-3.93 33.48 20.23 65.68 42.75 99.15 62.85-2.22-19.66-3.19-39.46-4.82-59.17-0.04-4.81-0.6-13.23 6.18-13.69 41.8-4.23 83.86-6.05 125.7-10.08m-25.5 22.52c-25.53 2.34-51.13 3.8-76.66 5.99-6.38 1.81-5.24 10.22-4.81 15.17 2.45 22.15 3.01 46.56 5.87 67.2-0.35-24.01-3.22-47.96-4.92-71.91-2.09-2.91 0.16-6.24 3.02-6.01 30.19-2.36 60.35-5.5 90.6-6.97 1.09-5.7-9.9-3.9-13.1-3.47m-201.9 3.68c32.01 21.96 65.68 42.38 98.14 64 4.21 2.48 1.71-6.46-1.74-5.18-32.23-19.43-63.64-40.35-96.4-58.82m216.21 0.84c1.28 6.31 0.03 14.94 2.11 19.86-0.11-6.52 0.08-14.63-2.11-19.86m-22.9 4.91c5.58 3.83 13.7-1.98 0 0m-11.98 1.05c6.3 3.43 10.6-1.62 0 0m-10.55 1.33c4.75 3.22 6.52-2.56 0 0m-43.44 3.77c0.84 22 3.37 43.98 4.84 65.96 0.7 11.89-6.52 22.93-18.49 25 6.82 2.76 16.73 16.08 24.53 10.54-2.35-33.81-5.79-67.63-8.03-101.48-0.71-0.01-2.14-0.02-2.85-0.02m-140.77 2.3c-129.2 99.95-256.03 202.99-386.39 301.45-2.88 1.22-7.35 7.41-3.27 8.72 130.65-99.49 260.53-200.94 390.23-301.18 37.62 23.48 74.4 48.41 112.33 71.43 5.74 4.79 13.97 3.74 20 0.15-4.66-7.09-14.57-3.33-20.24-8.96-37.58-23.83-74.97-47.95-112.66-71.61m231.75 7.61c-1.78 15.34 3.61 10.5 0 0m1.02 12c-1.82 15.67 3.62 12.34 0 0m-312.55 9.46c-14.22 8.35-1.63 6.71 0 0m313.55 3.54c-1.82 15.67 3.62 12.34 0 0m-322.74 3.29c-5.38 2.36 2.57 3.62 0 0m-4 3c-5.38 2.36 2.57 3.62 0 0m-5 4c-5.38 2.36 2.57 3.62 0 0m-4 3c-5.38 2.36 2.57 3.62 0 0m336.74-0.29c-1.82 15.67 3.62 12.34 0 0m-345.74 7.29c-5.38 2.36 2.57 3.62 0 0m-4 3c-5.38 2.36 2.57 3.62 0 0m-5 4c-5.38 2.36 2.57 3.62 0 0m355.71-0.3c-1.73 14.27 3.46 8.93 0 0m-359.71 3.3c-5.38 2.36 2.57 3.62 0 0m-5 4c-5.38 2.36 2.57 3.62 0 0m-4 3c-5.38 2.36 2.57 3.62 0 0m-4 3c-5.38 2.36 2.57 3.62 0 0m373.71-0.3c-1.73 14.27 3.46 8.93 0 0m-378.71 4.3c-5.38 2.36 2.57 3.62 0 0m-3.81 3.17c-14.22 8.35-1.63 6.71 0 0m383.52 5.53c-1.73 14.27 3.46 8.93 0 0m-392.71 1.3c-5.38 2.36 2.57 3.62 0 0m-3.95 3.1c-6.68 3.01 1.49 4.86 0 0m-5.05 3.9c-5.38 2.36 2.57 3.62 0 0m-3.81 3.17c-14.22 8.35-1.63 6.71 0 0m406.58 1.55c-1.48 10.34 3.23 9.62 0 0m0.94 12.98c-1.73 14.27 3.46 8.93 0 0m1 13c-1.73 14.27 3.46 8.93 0 0m1.85 17.23c1.13 5.77 7.04 8.47 11.5 11.45 56.78 31.57 113.63 63.04 170.4 94.63 5.55 1.73-1.31-6.89-3.81-7.29-59.23-33.16-118.55-66.28-178.09-98.79m-549.49 169.81c-7.31 7.98-16 14.53-23.45 22.39 8.68 3.84 14.33-5.2 19.43-10.56 2.93 6.59-1.13 16.09 6.23 20.66 0.88-10.33 0.11-24.28-2.21-32.49m-70.61 15.2c9.32 10.58 16.91 23.35 27.52 32.47 7.22-2.25 12.51-10.29 17.85-15.55-6.56 1.66-9.88 8.26-15.13 11.9-10.7-8.89-19.12-20.41-30.24-28.82m56.7 17.02c-13.3 7.88 1.92 5.25 5.96 12.56 0.72-3.13 0.81-14.24-5.96-12.56m12.54 8.99c2.11 44.58 4.2 89.32 6.89 133.87 3.66-3.34 4.65-9.97 4.01-14.88-3.12-37.82-4.81-75.77-8.39-113.54-0.59-1.59-0.6-6.19-2.51-5.45m261.62 15.31c-37.13 2.95-74.34 4.78-111.47 7.65 4.17 78.83 8.93 157.71 13.08 236.57 3.33 0.26 11.55 2 9.16-3.27-5.05-75.55-9.52-151.15-15.22-226.65 36.85-2.58 73.7-6.06 110.59-7.76 5.99 76.08 12.21 152.18 18.83 228.2 1.66 4.82 11.78 1.32 7.34-5.08-7.45-76.61-14.37-153.29-20.13-230.05-4.04-0.61-8.17-0.01-12.18 0.39m-1.28 12.87c-31.37 3.4-62.93 5.35-94.26 8.87 5.51 73.9 11.48 147.82 17.02 221.72 32.57-2.14 65.14-4.74 97.76-6.07-5.93-72.73-12.64-145.44-18.68-218.16-0.54-2.33 2.01-7.75-1.84-6.36m-259.98 50.05c-2.57 7.51 3.13 5.94 0 0m0.6 10.6c-0.11 10.34 1.47 20.59 1.99 30.9 2.21 8.62-9.89 12.2-5.45 20.97 3.14-1.07 6.4-2.53 8.43-5.26-2.25-15.3-2.46-32.61-4.97-46.61m-232.79 59.09c8.95 153.21 17.74 306.51 27.08 459.73 223.03-11.99 446.05-26.32 669.06-39.38 13.81 2.92 1.43-32.36-2.98-16.3 9.55-3.54-1.62 4.72 2.68 9.66-3.27 0.78-7.91 0-9.27 3.79-4.08-5.61-13.96 4.19-16.97-1.58-167.88 10.86-335.84 21.1-503.8 30.97-1.22-0.23-3.65-0.7-4.87-0.93 166.09-12.86 332.11-26.91 498.2-39.72 6.64-0.7-1.68-4.1-3.83-5.79-204.93 15.15-411.03 32.43-615.79 44.79-10.59-145.06-19.72-290.91-29.59-436.27 69.9-5.21 139.86-9.72 209.81-14.28 0.22-4.27 1.76-11.08-5.8-7.93-71.3 4.43-142.62 8.86-213.93 13.24m243.31-5.14c-3.43 4.28-9.21 5.2-13.29 8.39 2.58 45.68 6.67 91.5 8.49 137.28 4.2-0.72 8.29-1.96 12.4-3.07-3.08-47.39-4.01-95.76-7.6-142.6m-28.94 9.52c-64.45 5.23-129.42 8.99-193.59 14.48 11.02 138.85 18.16 278.29 27.95 417.05 197.38-13.6 394.91-27.5 592.18-43-34.03-16.15-73.77-22.93-111.5-27.65-73.33-9.06-146.68-17.91-220.01-27-36.54-4.01-72.9-10.86-107.96-22.01-28.26-9.99-57.65-23.41-74.67-49.36-14.07-21.35-13.62-51.34 2.88-71.25 24.81-30.12 64.43-40.12 99.28-53.19-2.68-46.13-5.16-92.32-8.2-138.46-1.59 0.1-4.77 0.29-6.36 0.39m330.62 104.62c-2.18 6.39 6.79 8.47 10.85 6.32-2.7-3.18-6.48-6.53-10.85-6.32m-58.67 2.22c-23.18 2.21-46.48 3.54-69.69 5.35-2.82-0.25-2.36 4.23-0.53 5.27 22.12-1.96 44.47-2.61 65.98-8.73 1.85 1.19 10.55-3.32 4.24-1.89m-91.47 6.62c1.01 15.08 20.71-4.92 0 0m-26.44 3.51c-7.91 1.7-17.9 2.2-24.4 4.5 9.9 0.15 19.76-1.4 29.68-1.19 0.85-3.53-0.52-5.77-5.28-3.31m157.69 8.03c-13.4 4.97 18.96 15.39 18.48 3.34-8.04 8.27-8.26-3.84-18.48-3.34m32.23 1.67c-0.97 2.97-1.65 6.03-2.24 9.1 6.73 3.76 10.18-13.29 2.24-9.1m-47.9 1.21c-14.35 3.16-30.5 5.65-43.43 9.66 17.58-1.55 35.19-3.06 52.84-3.67-1.74-3.86-3.85-9.05-9.41-5.99m-261.04 12.8c-2.88 1.08-8.12 0.02-9.49 2.72-0.9 10.75 22.26 0.48 9.49-2.72m304.17 0.16c-4.31 3.39-16.25 4.12-12.62 10.5 6.09 0.96 24.6-11.89 12.62-10.5m-206.06 1.19c-31.28-0.3-61.4 8.94-91.69 15.57 18.35 1.19 39.9-2.76 59.24-2.97 15.17 1.02 27.64-8.77 41.82-12.21 3.29-2.94-8.25 0.06-9.37-0.39m-120.36 4.76c-32.61 10.33-67.57 21.57-90.99 47.99-21.29 23.82-12.57 62.34 11.66 80.7 40.17 31.68 92.57 39.65 141.51 48.5 87.91 10.81 175.85 21.48 263.78 32.16 35.42 6.32 71.62 13.55 103.49 30.97 1.8 0.23 12.63 1.72 7.98-2.29-33.21-20.48-72.38-27.9-110.2-34.91-87.98-10.82-176.02-21.13-263.99-32.01-40.84-6.36-82.55-14.09-119.51-33.48-20.17-10.77-39.74-28.94-41.01-53.22-2.51-18.86 10.01-34.93 24.14-45.59 23.01-16.85 50.51-26.07 77.53-34.24-0.48-2.17-1.45-5.84-4.39-4.58m253.3 15.22c-51.24 4.62-101.9 19.76-148.51 41.6 2 4.35 8.78 0.69 12.21-0.92 44.43-19.24 92.09-29.65 139.27-39.68 10.79-1.1-0.97-2.52-2.97-1m-243.16 0.83c-26.79 8.17-54.13 17.3-76.85 34.19-11.91 8.77-21.49 23.84-16.73 39.14 4.89 19.54 23.09 31.88 40.2 40.22 44.51 19.79 93.32 27.1 141.36 32.64 70.64 8.61 141.26 17.35 211.88 26.12 51.01 7.64 106.02 16.76 146.98 50.32 11.06 2.08 1.76-5.79-1.07-8.33-35.16-28.52-81.44-37.29-124.67-46.23-83.18-11.72-166.52-22.36-249.83-33.16-43.59-6.16-88.4-13.34-127.67-34.32-13.35-7.34-27.03-18.7-28.05-35.03 0.59-15.71 15.74-25.03 27.83-32.12 23.65-12.48 49.42-20.31 75.21-27.04-6.9 0.09-12.07-6.95-18.59-6.4m90.15 43.86c-8.07 7.92 17.18-1.14 0 0m752.01 169.86c-0.3 5.59 5.5-0.66 0 0m-386.3 12.97c-6.68 5.24 7.83 2.23 0 0m-24.52 5.08c-0.85 3.35 7.81 8.14 12.07 5.54-2.27-4.71-6.63-7.55-12.07-5.54z"/>
<path id="path6" d="m1007.2 288.54c6.3 0.12 1.8 5.97 0 0z"/>
<path id="path8" d="m1009.5 293.46c-13.98 21.82-34.34 46.46-50.6 69.51-7.58-4.14-13.55-10.94-21.42-14.62-5.61-1.82-11.12 3.94-9.17 9.49 2.88 36.32 5.48 72.67 8.51 108.98 0.69 6.49 9.53 5.32 14 5.05 77.48-5.9 155.18-11.24 232.48-17.9 8.4 112.67 15.9 225.49 23.6 338.27 1.6 2.46-1.4 14.54-1 2.8-7.9-112.69-16-225.41-25-338-79.5 5.82-159.1 11.7-238.49 17.7-4.3-1-8.6-4.67-7.76-9.56-2.49-35.45-5.14-70.9-7.77-106.34-1.81-6.15 2.59-12.78 9.03-12.68 8.73 2.48 14.84 11.45 22.79 14.57 16.95-22.33 33.09-45.72 50.8-67.27z"/>
<path id="path10" d="m831.24 353.42c2.3-0.13 5.23-0.26 6.89 1.57-38.53 8.08-78.07 8.93-117.09 13.12 34.81-9.11 73.49-12.72 110.2-14.69z"/>
<path id="path12" d="m922.01 358.01c3.61 10.5-1.79 15.34 0 0z"/>
<path id="path14" d="m637.6 364.39c14.76-0.92 29.56-0.15 44.35-0.47-17.82 6.48-50.33-6.5-59.39 18.62-1.06-6.18 6.5-17.24 15.04-18.15z"/>
<path id="path16" d="m839.42 364.4c4.56-1.46 10.72 1.07 11.11 6.29 6.89 54.25 10.75 108.89 9.55 163.59-3.3 6.23-11.09 3.48-16.88 3.68 2.73-2.64 17.21 2.15 13.64-7.9-4.55-50.28-8.44-100.99-21.08-150.02-60.54 13.73-122.83 14.99-184.6 12.11-2.32 51.84-4.84 103.84-1.2 155.67-0.26 7.01 8.48 5.01 13.05 5.23 60.04-3.65 119.46-17.43 179.86-13.11 1.04 1.57-1.88 1.78-2.77 2.33-60.43 17.92-122.37 30.94-185.07 37.56-16.93-0.09-31.72-15.17-30.56-32.31-1.71-53.5 1.91-106.9 3.6-160.36 0.63-8.13 7.61-15.32 16.16-14.1 65.19 1.09 130.41-0.87 195.19-8.66z"/>
<path id="path18" d="m923.01 371.01c3.61 10.5-1.79 15.34 0 0z"/>
<path id="path20" d="m550.26 374.56c10.44-0.66 19.33 8.81 19.29 19.03 6.06 81.04 14.12 162.07 16.44 243.3-11.19-80.52-14.77-165.76-22.75-248.03-2.77-11.19-16.05-9.28-24.74-8.47-47.92 4.05-96.13 5.83-143.88 11.15-14.82 7.4-5.36 26.61-6.54 39.38-0.84-11.86-10.72-37.37 8.2-41.95 51.21-5.83 102.66-9.57 153.98-14.41z"/>
<path id="path22" d="m924 386.02c3.43 6.31-1.62 10.6 0 0z"/>
<path id="path24" d="m826.32 389.23c5.09 16.46 5.33 37.45 8.8 55.67-5.61-15.03-7.61-33.61-12.36-49.85-49.04 7.16-97.96 17.23-147.66 18.05-1.94 34.25 4.78 68.13 9.25 101.87 25.83-1.23 51.72-1.03 77.6-1.02-26.33 4.31-56.92 5.84-84.79 9.07-4.52-39.89-12.24-79.68-13.02-119.94 54.27-0.89 108.8-3.31 162.18-13.85z"/>
<path id="path26" d="m925.06 398.02c3.22 9.62-1.48 10.34 0 0z"/>
<path id="path28" d="m655.03 422.27c6.55 32.94 12 71.23 16.26 106.58 55.5-2.83 110.87-18.43 166.56-8.97 4.02-14.32 5.43-7.25 6.08 4.14-61.56 6.15-123.26 12.07-184.77 18.86-5.19-39.99-6.15-80.4-4.13-120.61z"/>
<path id="path30" d="m836.94 422.99c6.99 29.42 8.67 62.08 10.15 92.98-4.51-29.59-6.57-62.23-10.15-92.98z"/>
<path id="path32" d="m388.29 434.48c3.37 3.46-2.55 5.52 0 0z"/>
<path id="path34" d="m77.99 507.99c16.53-2.25 9.01 3.91 0 0z"/>
<path id="path36" d="m22.33 511.3c17.3-0.21 36.68-3.54 52.55-1.49-18.41 1.11-36.81 2.48-55.2 3.79-8.34 0.73-16.13 7.01-16.77 15.7 8.51 146.52 21.26 295.41 26.28 440.58-11.11-144.61-20.45-289.35-29.19-434.12v-6.39c2.18-10.46 11.51-18.46 22.33-18.07z"/>
<path id="path38" d="m304.29 577.48c3.37 3.45-2.55 5.52 0 0z"/>
<path id="path40" d="m943.29 615.48c3.37 3.45-2.55 5.52 0 0z"/>
<path id="path42" d="m944.06 624.02c3.22 9.62-1.48 10.34 0 0z"/>
<path id="path44" d="m872 651.95c13.7-1.98 5.58 3.82 0 0z"/>
<path id="path46" d="m861.48 653.35c7.51-2.57 5.93 3.13 0 0z"/>
<path id="path48" d="m479.99 767.99c16.53-2.25 9.01 3.91 0 0z"/>
<path id="path50" d="m493 769c14.27-1.72 8.92 3.46 0 0z"/>
<path id="path52" d="m507 769.95c13.7-1.98 5.58 3.82 0 0z"/>
<path id="path54" d="m1207 802.01c3.6 12.34-1.8 15.66 0 0z"/>
<path id="path56" d="m1208 817c3.4 8.92-1.7 14.27 0 0z"/>
<path id="path58" d="m1209.1 832.02c3.2 9.62-1.5 10.34 0 0z"/>
<path id="path60" d="m1210.3 846.47c3.2 4.75-2.5 6.52 0 0z"/>
<path id="path62" d="m1225 915.57c-1.2-3.96-1.3-8.11 0-12.03v12.03z"/>
<path id="path64" d="m1210.2 905.99c4.2 8.3-4.3 11.42 0 0z"/>
<path id="path66" d="m728 954.88c-0.85 5.8 5.82-0.45 0 0z"/>
<path id="path68" d="m30.01 972.01c3.62 10.49-1.78 15.33 0 0z"/>
<path id="path70" d="m179.99 987.99c16.53-2.26 9.01 3.9 0 0z"/>
</g>
</svg>
